<?xml version="1.0" encoding="utf-8"?>
<!-- Generator: Adobe Illustrator 24.1.1, SVG Export Plug-In . SVG Version: 6.00 Build 0)  -->
<svg version="1.1" xmlns="http://www.w3.org/2000/svg" xmlns:xlink="http://www.w3.org/1999/xlink" x="0px" y="0px"
	 viewBox="0 0 920 1750" style="enable-background:new 0 0 920 1750;" xml:space="preserve">
<style type="text/css">
	.st0{display:none;}
	.st1{display:inline;}
	.st2{display:inline;fill:none;stroke:#ED1C24;stroke-miterlimit:10;}
	.st3{display:inline;fill:none;stroke:#281D1E;stroke-miterlimit:10;}
	.st4{fill:#281D1E;}
	.st5{fill:none;stroke:#281D1E;stroke-miterlimit:10;}
</style>
<g id="Layer_1" class="st0">
	<path class="st1" d="M-342.2,1216.6l-2.9-0.8l-364.4,282.9l-0.7-0.9l-0.5,0.1l-94.8-451.5l-32.5-15.8l-16.7-8.1v0.7h-1.5v-1.4
		l-1.9-0.9l-112.4-54.5l-0.3,1l-1.4-0.4l0.4-1.3l-34.1-16.5l-98.6-47.8l-0.6,0.8l-1.2-0.9l0.4-0.6l-114.6-55.6l-0.3,0.2l-0.9-1.2
		l102.9-80l0.1-0.1l0,0l116.7-90.7l-0.2-0.3l1.3-0.7l0,0.1l100.5-78.1l-0.1-0.3l0.7-0.1l42.3-32.9l-0.2-54.5l-0.6,0.3l-0.6-1.3
		l1.2-0.6l0-4.5l-0.3-122.5l-1,0.2l-0.3-1.4l1.3-0.2l-0.4-147.5l-0.9-0.2l0.3-1.4l0.6,0.1l-0.3-127.5l-0.1-0.1l0.6-1.3l116.2,57.1
		l0.7,0.2l0,0.1l132.6,65.1l0.3-0.4l1.2,0.9l-0.2,0.2l114.2,56.1l0.5-0.4l0.7,0.9l47.9,23.5l2.8-1.4l0.6,4.6l-3.3-1.6L-660.4,410
		L-856,562l0.7,240l51.1,243.6l222.5,107.8l236.2,60.9l2.3-1.8 M-856.1,504.4l17.3-8.5l36.1-127.8l-53.7,9.7L-856.1,504.4z
		 M-680.9,320.1l38.2-52.2l-123.8-22.3l-34.1,120.7l99-17.8L-680.9,320.1z M-699.6,348.2l151.3-27.2l37.6-29.3l-130.5-23.5
		L-699.6,348.2z M-928.6,813l-2.4-4.5l-44.2-83.8l-74.3,101.6l40.8,36.5l52.7,47.1L-928.6,813z M-954.8,911l57,50.9l41.6,37.2
		l-0.1-49.2l-71.2-135L-954.8,911z M-928,811l41.9-148.3l-9.7-46.4l-78.3,107.1L-928,811z M-927,812.8l9.5,18.1l61,115.8l-0.4-144.6
		l-16.9-80.5l-11.7-55.8L-927,812.8z M-856.7,290.9l0.2,85.5l54.2-9.7l34.3-121.2l-88.9-16L-856.7,290.9z M-801.2,367.9l-17.9,63.2
		l-18.1,64l44-21.6l90.2-123.2L-801.2,367.9z M-944.2,977.7l88,42.6l0-19.3l-91.4-81.7l-7.6-6.8l-14.9,52.6L-944.2,977.7z
		 M-1057.7,922.7l86.3,41.8l15-53l-93.9-84l-53.3,72.9L-1057.7,922.7z M-1118.8,766.3l-100.5,78.1l55.7,27l58.6,28.4l53.6-73.2
		l-34.8-31.1L-1118.8,766.3z M-1001.3,675l-116.3,90.4l63,56.4l4,3.6l74.7-102.1l-7.5-14.2L-1001.3,675z M-900,596.2l-100.2,77.9
		l25.3,47.9l78.7-107.6l-1.7-8.1L-900,596.2z M-898.7,595.2l2,9.6l1.7,7.9l34.7-47.4L-898.7,595.2z M-894.6,614.7l9.4,45l26.7-94.3
		L-894.6,614.7z M-884.6,662.8l27.7,132.2l-0.6-228L-884.6,662.8z M-857.2,100.9l0.3,127l89.3,16.1l24.6-87L-857.2,100.9z
		 M-741.7,157.7l-22.3,78.7l-2.2,7.9l124.4,22.4l10.2-14l22-30.1L-741.7,157.7z M-608.2,223.2l-12.3,16.8l-19.7,27l131.1,23.6
		l14.7-11.4L-608.2,223.2z M-492.9,279.8l-13.3,10.3l-1,0.7l58.1,10.5L-492.9,279.8z M-508.8,292.1l-25.3,19.7l-11.1,8.7l97-17.4
		L-508.8,292.1z M-449.1,304.6l-98.6,17.7l-107.1,83.2L-449.1,304.6z M-600.3,361.4l49.5-38.5l-150.1,27l-89.4,122.2l129.1-63.4
		L-600.3,361.4z M-666.9,413.1l-125.3,61.5l-45.9,62.8l-15,20.4L-666.9,413.1z M-806.6,492L-795,476l-42.7,21l-13.7,48.3l-3.6,12.7
		L-806.6,492z M-839.4,497.9l-16.7,8.2l0,4.7l0.1,45.7L-839.4,497.9z M-854.7,1021.1l21.4,10.4l24.1,11.7l-45.6-40.7L-854.7,1021.1z
		 M-854.8,1000.4l34.8,31.1l12.6,11.2l-47.5-90.1L-854.8,1000.4z M-855.3,809.2l0.4,140.3l48.3,91.6L-855.3,809.2z M-425.7,1276.6
		l75.8-58.9l-28.6,11.5l-25.6,10.3l15,7.3l-0.6,1.3l-16.2-7.8l-124.8,50.1l40.6,36.3L-425.7,1276.6z M-709.5,1225.3l58.9,111.7
		l52.7-21.2l64.6-25.9l-75.1-67.2L-709.5,1225.3z M-610,1221.2l-115.8-103.5l-46.8-12.1l62.3,118.2l7.1-0.2L-610,1221.2z
		 M-531.8,1289.2l124.2-49.9l-42.9-20.8l-155.8,4L-531.8,1289.2z M-552.2,1374.9l61-47.4l-40.9-36.6l-117.8,47.3l42.1,79.8
		L-552.2,1374.9z M-709.5,1496.9l1.8-1.4l98.6-76.6l-42.3-80.2l-84.3,33.8L-709.5,1496.9z M-735.9,1371.2l83.9-33.7l-59.1-112.2
		l-55,1.4L-735.9,1371.2z M-766.5,1225.3l54.6-1.4l-62.6-118.7l-18-4.7l0.4-1.4l16.7,4.3l-27.6-52.4L-766.5,1225.3z M-773.5,1103.9
		l45.4,11.7l-74.1-66.3L-773.5,1103.9z M-800.5,1049l75.4,67.4l136.3,35.2L-800.5,1049z M-582.2,1154.7l-140.5-36.3l114.8,102.7
		l154.5-4L-582.2,1154.7z M-575,1156.6l124.8,60.5l52-1.3l47.7-1.2L-575,1156.6z M-447.3,1218.5l41.5,20.1l56.5-22.7L-447.3,1218.5z
		"/>
	<line class="st2" x1="1.9" y1="521.4" x2="196.7" y2="178.7"/>
	<line class="st2" x1="437" y1="518.6" x2="675.9" y2="94.8"/>
	<line class="st2" x1="183.9" y1="515.7" x2="462.6" y2="20.9"/>
	<line class="st2" x1="391.5" y1="518.6" x2="198.1" y2="180.2"/>
	<line class="st2" x1="739.9" y1="515.7" x2="462.6" y2="23.8"/>
	<line class="st2" x1="921.9" y1="515.7" x2="675.9" y2="94.8"/>
	<line class="st2" x1="1.9" y1="521.4" x2="920.5" y2="515.7"/>
	<line class="st2" x1="4.7" y1="521.4" x2="87.2" y2="450.3"/>
	<line class="st2" x1="158.3" y1="433.3" x2="87.2" y2="450.3"/>
	<line class="st2" x1="272.1" y1="362.2" x2="158.3" y2="433.3"/>
	<line class="st2" x1="181.1" y1="518.6" x2="158.3" y2="433.3"/>
	<line class="st2" x1="198.1" y1="180.2" x2="158.3" y2="433.3"/>
	<line class="st2" x1="87.2" y1="450.3" x2="195.3" y2="183"/>
	<line class="st2" x1="181.1" y1="518.6" x2="87.2" y2="450.3"/>
	<line class="st2" x1="286.3" y1="399.1" x2="181.1" y2="518.6"/>
	<line class="st2" x1="391.5" y1="518.6" x2="286.3" y2="399.1"/>
	<line class="st2" x1="198.1" y1="180.2" x2="286.3" y2="399.1"/>
	<line class="st2" x1="294.8" y1="350.8" x2="439.8" y2="163.1"/>
	<line class="st2" x1="461.6" y1="21.3" x2="407.5" y2="399.6"/>
	<line class="st2" x1="715.7" y1="211.4" x2="405.7" y2="399.1"/>
	<line class="st2" x1="462.6" y1="20.9" x2="562.1" y2="308.1"/>
	<line class="st2" x1="439.8" y1="163.1" x2="562.1" y2="308.1"/>
	<line class="st2" x1="437" y1="515.7" x2="570.7" y2="475.9"/>
	<line class="st2" x1="738.5" y1="515.7" x2="570.7" y2="475.9"/>
	<line class="st2" x1="587.7" y1="384.9" x2="570.7" y2="475.9"/>
	<line class="st2" x1="562.1" y1="308.1" x2="587.7" y2="384.9"/>
	<line class="st2" x1="286.3" y1="399.1" x2="405.7" y2="399.1"/>
	<line class="st2" x1="476.8" y1="447.5" x2="405.7" y2="399.1"/>
	<line class="st2" x1="437" y1="518.6" x2="405.7" y2="399.1"/>
	<line class="st2" x1="715.7" y1="211.4" x2="675.9" y2="94.8"/>
	<line class="st2" x1="758.4" y1="453.2" x2="738.5" y2="515.7"/>
	<line class="st2" x1="920.5" y1="515.7" x2="758.4" y2="453.2"/>
	<line class="st2" x1="715.7" y1="211.4" x2="758.4" y2="453.2"/>
	<line class="st2" x1="476.8" y1="447.5" x2="587.7" y2="384.9"/>
	<line class="st2" x1="738.5" y1="515.7" x2="587.7" y2="384.9"/>
	<line class="st2" x1="920.5" y1="515.7" x2="715.7" y2="211.4"/>
</g>
<g id="Layer_2" class="st0">
	<polygon class="st3" points="198.2,181.2 1.4,522 394.9,522 	"/>
	<polygon class="st3" points="674.4,98.3 429.8,522 919,522 	"/>
	<polygon class="st3" points="462.3,26.5 176.3,522 748.4,522 	"/>
</g>
<g id="Layer_2_copy">
	<g>
		<path class="st4" d="M198.2,183.2l195,337.8H3.2L198.2,183.2 M198.2,181.2L1.4,522h393.5L198.2,181.2L198.2,181.2z"/>
	</g>
	<g>
		<path class="st4" d="M191.5,194.8l-105.1,255L5.1,517.6L191.5,194.8 M198.2,181.2L1.4,522l85.8-71.6L198.2,181.2L198.2,181.2z"/>
	</g>
	<g>
		<path class="st4" d="M87.2,451.6l89.5,69.3H4.2L87.2,451.6 M87.2,450.3L1.4,522h178.2L87.2,450.3L87.2,450.3z"/>
	</g>
	<g>
		<path class="st4" d="M157.6,434.5l20.4,84.9l-88.5-68.6L157.6,434.5 M158.3,433.3l-71.1,17.1l92.4,71.6L158.3,433.3L158.3,433.3z"
			/>
	</g>
	<g>
		<path class="st4" d="M195.9,189.4l-38.4,243l-68.5,16.5L195.9,189.4 M198.2,181.2l-111,269.1l71.1-17.1L198.2,181.2L198.2,181.2z"
			/>
	</g>
	<g>
		<path class="st4" d="M270.1,361.5l15.1,37.4L182,514.1L270.1,361.5 M270.2,359.3L176.3,522l110-122.8L270.2,359.3L270.2,359.3z"/>
	</g>
	<g>
		<path class="st4" d="M286.3,400.6L392.7,521H178.5L286.3,400.6 M286.3,399.1L176.3,522h218.6L286.3,399.1L286.3,399.1z"/>
	</g>
	<polygon class="st5" points="394.9,522 198.2,182.6 286.3,399.1 	"/>
	<polygon class="st5" points="674.4,98.3 429.8,522 919,522 	"/>
	<g>
		<path class="st4" d="M462.3,28.5L746.7,521H178L462.3,28.5 M462.3,26.5L176.3,522h572.1L462.3,26.5L462.3,26.5z"/>
	</g>
</g>
</svg>
