<svg id="Layer_1" data-name="Layer 1" xmlns="http://www.w3.org/2000/svg" viewBox="0 0 52 70"><defs><style>.cls-1{fill:none;stroke:#060606;stroke-miterlimit:10;}</style></defs><path class="cls-1" d="M21,43.23c0-9.94.09-18.73-.05-27.51-.05-3.67,1-6.52,5-6.57s5.17,2.71,5.12,6.43c-.13,8.89,0,17.78,0,27.62l6.36-5.92c2.4-2.21,5.06-2.76,7.46-.29s1.89,5.25-.33,7.54c-4.85,5-9.76,9.95-14.84,14.72-2.38,2.24-5.19,2.08-7.58-.24C17.2,54.27,12.34,49.5,7.6,44.63c-2.4-2.46-2.87-5.42-.17-7.89,2.53-2.32,5.17-1.45,7.48.78C16.66,39.21,18.45,40.85,21,43.23Z"/><line class="cls-1" x1="31.01" y1="43.2" x2="37.37" y2="37.28"/></svg>