<?xml version="1.0" encoding="utf-8"?>
<!-- Generator: Adobe Illustrator 24.1.1, SVG Export Plug-In . SVG Version: 6.00 Build 0)  -->
<svg version="1.1" id="Layer_1" xmlns="http://www.w3.org/2000/svg" xmlns:xlink="http://www.w3.org/1999/xlink" x="0px" y="0px"
	 viewBox="0 0 920 1750" style="enable-background:new 0 0 920 1750;" xml:space="preserve">
<style type="text/css">
	.st0{opacity:0.15;}
	.st1{fill:none;stroke:#000000;stroke-linejoin:round;}
</style>
<g class="st0">
	<path class="st1" d="M350.6,103.6l126,218.3h-252L350.6,103.6 M350.6,102.3L223.4,322.5h254.3L350.6,102.3L350.6,102.3z"/>
	<path class="st1" d="M346.2,111.1l-67.9,164.8l-52.5,43.8L346.2,111.1 M350.6,102.3L223.4,322.5l55.5-46.3L350.6,102.3L350.6,102.3
		z"/>
	<path class="st1" d="M278.8,277l57.8,44.8H225.2L278.8,277 M278.8,276.2l-55.4,46.3h115.2L278.8,276.2z"/>
	<path class="st1" d="M324.3,266l13.2,54.9l-57.2-44.3L324.3,266 M324.8,265.2l-46,11.1l59.7,46.3L324.8,265.2L324.8,265.2z"/>
	<path class="st1" d="M324.3,266l13.2,54.9l-57.2-44.3L324.3,266 M324.8,265.2l71.8-48.1l-58,105.4L324.8,265.2L324.8,265.2z"/>
	<path class="st1" d="M349.1,107.6l-24.8,157L280,275.3L349.1,107.6 M350.6,102.3l-71.8,173.9l46-11L350.6,102.3L350.6,102.3z"/>
	<polygon class="st1" points="477.7,322.5 350.6,103.2 408.4,241.5 	"/>
	<polygon class="st1" points="658.3,48.7 500.2,322.5 816.4,322.5 	"/>
	<path class="st1" d="M521.2,3.6L705,321.9H337.5L521.2,3.6 M521.2,2.3L336.4,322.5h369.7L521.2,2.3z"/>
	<polyline class="st1" points="521.2,3.6 705,321.9 337.5,321.9 521.2,3.6 	"/>
	<polygon class="st1" points="521.2,2.3 336.4,322.5 396.8,241.7 507.3,93.9 521.2,2.3 	"/>
	<polygon class="st1" points="521.2,2.3 582.5,178.8 507.3,93.9 521.2,2.3 	"/>
	<polygon class="st1" points="582.5,178.8 507.3,93.9 485,238.7 	"/>
	<polygon class="st1" points="582.5,178.8 528.1,274.9 485,238.7 	"/>
	<polygon class="st1" points="582.5,178.8 528.1,274.9 602,231.7 	"/>
	<polygon class="st1" points="705,322.3 528.1,274.9 602,231.7 	"/>
	<polygon class="st1" points="705,322.3 705,130.1 602,231.7 	"/>
	<polygon class="st1" points="629.8,98 704.3,128.7 634,198.3 	"/>
	<polygon class="st1" points="629.8,98 704.3,128.7 666,61.8 	"/>
	<polygon class="st1" points="705,322.3 705,130.1 742.6,195.5 	"/>
	<polygon class="st1" points="720.3,269.3 816.4,322.3 742.6,195.5 	"/>
	<polygon class="st1" points="500.3,322.3 528.1,274.9 485,238.7 	"/>
	<polygon class="st1" points="500.3,322.3 528.1,274.9 705,322.3 	"/>
	<polygon class="st1" points="408.4,241.5 507.3,93.9 485,238.7 	"/>
</g>
<g class="st0">
	<path class="st1" d="M258.6,340.3l126,218.3h-252L258.6,340.3 M258.6,339L131.4,559.3h254.3L258.6,339L258.6,339z"/>
	<path class="st1" d="M254.3,347.8l-67.9,164.8l-52.6,43.8L254.3,347.8 M258.6,339L131.4,559.3l55.4-46.3L258.6,339L258.6,339z"/>
	<path class="st1" d="M186.9,513.8l57.8,44.8H133.3L186.9,513.8 M186.9,512.9l-55.4,46.3h115.2L186.9,512.9z"/>
	<path class="st1" d="M232.4,502.7l13.2,54.9l-57.2-44.3L232.4,502.7 M232.8,501.9L186.9,513l59.7,46.3L232.8,501.9L232.8,501.9z"/>
	<path class="st1" d="M232.4,502.7l13.2,54.9l-57.2-44.3L232.4,502.7 M232.8,501.9l71.8-48.1l-58,105.4L232.8,501.9z"/>
	<path class="st1" d="M257.1,344.3l-24.8,157L188.1,512L257.1,344.3 M258.6,339l-71.7,173.9l45.9-11.1L258.6,339L258.6,339z"/>
	<polygon class="st1" points="385.8,559.3 258.6,339.9 316.5,478.2 	"/>
	<polygon class="st1" points="566.4,285.4 408.3,559.3 724.5,559.3 	"/>
	<path class="st1" d="M429.3,240.3l183.8,318.3H245.6L429.3,240.3 M429.3,239L244.5,559.3h369.7L429.3,239L429.3,239z"/>
	<polyline class="st1" points="429.3,240.3 613.1,558.6 245.6,558.6 429.3,240.3 	"/>
	<polygon class="st1" points="429.3,239 244.5,559.3 304.9,478.4 415.3,330.6 429.3,239 	"/>
	<polygon class="st1" points="429.3,239 490.5,415.6 415.3,330.6 429.3,239 	"/>
	<polygon class="st1" points="490.5,415.6 415.3,330.6 393,475.5 	"/>
	<polygon class="st1" points="490.5,415.6 436.2,511.7 393,475.5 	"/>
	<polygon class="st1" points="490.5,415.6 436.2,511.7 510,468.5 	"/>
	<polygon class="st1" points="613.1,559 436.2,511.7 510,468.5 	"/>
	<polygon class="st1" points="613.1,559 613.1,366.8 510,468.5 	"/>
	<polygon class="st1" points="537.9,334.8 612.4,365.4 542.1,435.1 	"/>
	<polygon class="st1" points="537.9,334.8 612.4,365.4 574.1,298.6 	"/>
	<polygon class="st1" points="613.1,559 613.1,366.8 650.7,432.3 	"/>
	<polygon class="st1" points="628.4,506.1 724.5,559 650.7,432.3 	"/>
	<polygon class="st1" points="408.4,559 436.2,511.7 393,475.5 	"/>
	<polygon class="st1" points="408.4,559 436.2,511.7 613.1,559 	"/>
	<polygon class="st1" points="316.5,478.2 415.3,330.6 393,475.5 	"/>
</g>
<g class="st0">
	<path class="st1" d="M350.6,500.5l126,218.3h-252L350.6,500.5 M350.6,499.2L223.4,719.4h254.3L350.6,499.2z"/>
	<path class="st1" d="M346.2,508l-67.9,164.8l-52.5,43.8L346.2,508 M350.6,499.2L223.4,719.4l55.5-46.3L350.6,499.2L350.6,499.2z"/>
	<path class="st1" d="M278.8,673.9l57.8,44.8H225.2L278.8,673.9 M278.8,673.1l-55.4,46.3h115.2L278.8,673.1z"/>
	<path class="st1" d="M324.3,662.9l13.2,54.9l-57.2-44.3L324.3,662.9 M324.8,662.1l-46,11l59.7,46.3L324.8,662.1L324.8,662.1z"/>
	<path class="st1" d="M324.3,662.9l13.2,54.9l-57.2-44.3L324.3,662.9 M324.8,662.1l71.8-48.1l-58,105.4L324.8,662.1L324.8,662.1z"/>
	<path class="st1" d="M349.1,504.5l-24.8,157L280,672.2L349.1,504.5 M350.6,499.2l-71.8,173.9l45.9-11.1L350.6,499.2L350.6,499.2z"
		/>
	<polygon class="st1" points="477.7,719.4 350.6,500.1 408.4,638.4 	"/>
	<polygon class="st1" points="658.3,445.6 500.2,719.4 816.4,719.4 	"/>
	<path class="st1" d="M521.2,400.5L705,718.8H337.5L521.2,400.5 M521.2,399.2L336.4,719.4h369.7L521.2,399.2z"/>
	<polyline class="st1" points="521.2,400.5 705,718.8 337.5,718.8 521.2,400.5 	"/>
	<polygon class="st1" points="521.2,399.2 336.4,719.4 396.8,638.6 507.3,490.8 521.2,399.2 	"/>
	<polygon class="st1" points="521.2,399.2 582.5,575.7 507.3,490.8 521.2,399.2 	"/>
	<polygon class="st1" points="582.5,575.7 507.3,490.8 485,635.6 	"/>
	<polygon class="st1" points="582.5,575.7 528.1,671.8 485,635.6 	"/>
	<polygon class="st1" points="582.5,575.7 528.1,671.8 602,628.7 	"/>
	<polygon class="st1" points="705,719.2 528.1,671.8 602,628.7 	"/>
	<polygon class="st1" points="705,719.2 705,527 602,628.7 	"/>
	<polygon class="st1" points="629.8,495 704.3,525.6 634,595.2 	"/>
	<polygon class="st1" points="629.8,495 704.3,525.6 666,458.7 	"/>
	<polygon class="st1" points="705,719.2 705,527 742.6,592.4 	"/>
	<polygon class="st1" points="720.3,666.3 816.4,719.2 742.6,592.4 	"/>
	<polygon class="st1" points="500.3,719.2 528.1,671.8 485,635.6 	"/>
	<polygon class="st1" points="500.3,719.2 528.1,671.8 705,719.2 	"/>
	<polygon class="st1" points="408.4,638.4 507.3,490.8 485,635.6 	"/>
</g>
<g class="st0">
	<path class="st1" d="M258.6,737.2l126,218.3h-252L258.6,737.2 M258.6,735.9L131.4,956.2h254.3L258.6,735.9z"/>
	<path class="st1" d="M254.3,744.7l-67.9,164.8l-52.6,43.8L254.3,744.7 M258.6,735.9L131.4,956.2l55.4-46.3L258.6,735.9L258.6,735.9
		z"/>
	<path class="st1" d="M186.9,910.7l57.8,44.8H133.3L186.9,910.7 M186.9,909.8l-55.4,46.3h115.2L186.9,909.8L186.9,909.8z"/>
	<path class="st1" d="M232.4,899.6l13.2,54.9l-57.2-44.3L232.4,899.6 M232.8,898.8l-45.9,11l59.7,46.3L232.8,898.8L232.8,898.8z"/>
	<path class="st1" d="M232.4,899.6l13.2,54.9l-57.2-44.3L232.4,899.6 M232.8,898.8l71.8-48.1l-58,105.4L232.8,898.8z"/>
	<path class="st1" d="M257.1,741.2l-24.8,157l-44.3,10.7L257.1,741.2 M258.6,735.9l-71.7,174l45.9-11L258.6,735.9L258.6,735.9z"/>
	<polygon class="st1" points="385.8,956.2 258.6,736.8 316.5,875.2 	"/>
	<polygon class="st1" points="566.4,682.3 408.3,956.2 724.5,956.2 	"/>
	<path class="st1" d="M429.3,637.2l183.8,318.3H245.6L429.3,637.2 M429.3,635.9L244.5,956.2h369.7L429.3,635.9z"/>
	<polyline class="st1" points="429.3,637.2 613.1,955.5 245.6,955.5 429.3,637.2 	"/>
	<polygon class="st1" points="429.3,635.9 244.5,956.2 304.9,875.3 415.3,727.5 429.3,635.9 	"/>
	<polygon class="st1" points="429.3,635.9 490.5,812.5 415.3,727.5 429.3,635.9 	"/>
	<polygon class="st1" points="490.5,812.5 415.3,727.5 393,872.4 	"/>
	<polygon class="st1" points="490.5,812.5 436.2,908.6 393,872.4 	"/>
	<polygon class="st1" points="490.5,812.5 436.2,908.6 510,865.4 	"/>
	<polygon class="st1" points="613.1,955.9 436.2,908.6 510,865.4 	"/>
	<polygon class="st1" points="613.1,955.9 613.1,763.7 510,865.4 	"/>
	<polygon class="st1" points="537.9,731.7 612.4,762.3 542.1,832 	"/>
	<polygon class="st1" points="537.9,731.7 612.4,762.3 574.1,695.5 	"/>
	<polygon class="st1" points="613.1,955.9 613.1,763.7 650.7,829.2 	"/>
	<polygon class="st1" points="628.4,903 724.5,955.9 650.7,829.2 	"/>
	<polygon class="st1" points="408.4,955.9 436.2,908.6 393,872.4 	"/>
	<polygon class="st1" points="408.4,955.9 436.2,908.6 613.1,955.9 	"/>
	<polygon class="st1" points="316.5,875.2 415.3,727.5 393,872.4 	"/>
</g>
<g class="st0">
	<path class="st1" d="M350.6,897.4l126,218.3h-252L350.6,897.4 M350.6,896.1l-127.2,220.3h254.3L350.6,896.1L350.6,896.1z"/>
	<path class="st1" d="M346.2,904.9l-67.9,164.8l-52.5,43.8L346.2,904.9 M350.6,896.1l-127.2,220.2l55.5-46.3L350.6,896.1
		L350.6,896.1z"/>
	<path class="st1" d="M278.8,1070.8l57.8,44.8H225.2L278.8,1070.8 M278.8,1070l-55.4,46.3h115.2L278.8,1070L278.8,1070z"/>
	<path class="st1" d="M324.3,1059.8l13.2,54.9l-57.2-44.3L324.3,1059.8 M324.8,1059l-46,11l59.7,46.3L324.8,1059L324.8,1059z"/>
	<path class="st1" d="M324.3,1059.8l13.2,54.9l-57.2-44.3L324.3,1059.8 M324.8,1059l71.8-48.1l-58,105.4L324.8,1059L324.8,1059z"/>
	<path class="st1" d="M349.1,901.4l-24.8,157.1l-44.3,10.7L349.1,901.4 M350.6,896.1L278.8,1070l46-11L350.6,896.1L350.6,896.1z"/>
	<polygon class="st1" points="477.7,1116.3 350.6,897 408.4,1035.3 	"/>
	<polygon class="st1" points="658.3,842.5 500.2,1116.3 816.4,1116.3 	"/>
	<path class="st1" d="M521.2,797.4L705,1115.7H337.5L521.2,797.4 M521.2,796.1l-184.8,320.2h369.7L521.2,796.1z"/>
	<polyline class="st1" points="521.2,797.4 705,1115.7 337.5,1115.7 521.2,797.4 	"/>
	<polygon class="st1" points="521.2,796.1 336.4,1116.3 396.8,1035.5 507.3,887.7 521.2,796.1 	"/>
	<polygon class="st1" points="521.2,796.1 582.5,972.6 507.3,887.7 521.2,796.1 	"/>
	<polygon class="st1" points="582.5,972.6 507.3,887.7 485,1032.5 	"/>
	<polygon class="st1" points="582.5,972.6 528.1,1068.7 485,1032.5 	"/>
	<polygon class="st1" points="582.5,972.6 528.1,1068.7 602,1025.6 	"/>
	<polygon class="st1" points="705,1116.1 528.1,1068.7 602,1025.6 	"/>
	<polygon class="st1" points="705,1116.1 705,923.9 602,1025.6 	"/>
	<polygon class="st1" points="629.8,891.9 704.3,922.5 634,992.1 	"/>
	<polygon class="st1" points="629.8,891.9 704.3,922.5 666,855.7 	"/>
	<polygon class="st1" points="705,1116.1 705,923.9 742.6,989.3 	"/>
	<polygon class="st1" points="720.3,1063.2 816.4,1116.1 742.6,989.3 	"/>
	<polygon class="st1" points="500.3,1116.1 528.1,1068.7 485,1032.5 	"/>
	<polygon class="st1" points="500.3,1116.1 528.1,1068.7 705,1116.1 	"/>
	<polygon class="st1" points="408.4,1035.3 507.3,887.7 485,1032.5 	"/>
</g>
<g class="st0">
	<path class="st1" d="M258.6,1134.1l126,218.3h-252L258.6,1134.1 M258.6,1132.8l-127.2,220.3h254.3L258.6,1132.8L258.6,1132.8z"/>
	<path class="st1" d="M254.3,1141.6l-67.9,164.8l-52.6,43.8L254.3,1141.6 M258.6,1132.8l-127.2,220.2l55.4-46.3L258.6,1132.8
		L258.6,1132.8z"/>
	<path class="st1" d="M186.9,1307.6l57.8,44.8H133.3L186.9,1307.6 M186.9,1306.8l-55.4,46.3h115.2L186.9,1306.8z"/>
	<path class="st1" d="M232.4,1296.5l13.2,54.9l-57.2-44.3L232.4,1296.5 M232.8,1295.8l-45.9,11l59.7,46.3L232.8,1295.8L232.8,1295.8
		z"/>
	<path class="st1" d="M232.4,1296.5l13.2,54.9l-57.2-44.3L232.4,1296.5 M232.8,1295.8l71.8-48.1l-58,105.4L232.8,1295.8
		L232.8,1295.8z"/>
	<path class="st1" d="M257.1,1138.1l-24.8,157l-44.3,10.7L257.1,1138.1 M258.6,1132.8l-71.7,173.9l45.9-11L258.6,1132.8
		L258.6,1132.8z"/>
	<polygon class="st1" points="385.8,1353.1 258.6,1133.7 316.5,1272.1 	"/>
	<polygon class="st1" points="566.4,1079.3 408.3,1353.1 724.5,1353.1 	"/>
	<path class="st1" d="M429.3,1034.2l183.8,318.3H245.6L429.3,1034.2 M429.3,1032.9l-184.8,320.2h369.7L429.3,1032.9L429.3,1032.9z"
		/>
	<polyline class="st1" points="429.3,1034.2 613.1,1352.4 245.6,1352.4 429.3,1034.2 	"/>
	<polygon class="st1" points="429.3,1032.9 244.5,1353.1 304.9,1272.3 415.3,1124.4 429.3,1032.9 	"/>
	<polygon class="st1" points="429.3,1032.9 490.5,1209.4 415.3,1124.4 429.3,1032.9 	"/>
	<polygon class="st1" points="490.5,1209.4 415.3,1124.4 393,1269.3 	"/>
	<polygon class="st1" points="490.5,1209.4 436.2,1305.5 393,1269.3 	"/>
	<polygon class="st1" points="490.5,1209.4 436.2,1305.5 510,1262.3 	"/>
	<polygon class="st1" points="613.1,1352.8 436.2,1305.5 510,1262.3 	"/>
	<polygon class="st1" points="613.1,1352.8 613.1,1160.7 510,1262.3 	"/>
	<polygon class="st1" points="537.9,1128.6 612.4,1159.3 542.1,1228.9 	"/>
	<polygon class="st1" points="537.9,1128.6 612.4,1159.3 574.1,1092.4 	"/>
	<polygon class="st1" points="613.1,1352.8 613.1,1160.7 650.7,1226.1 	"/>
	<polygon class="st1" points="628.4,1299.9 724.5,1352.8 650.7,1226.1 	"/>
	<polygon class="st1" points="408.4,1352.8 436.2,1305.5 393,1269.3 	"/>
	<polygon class="st1" points="408.4,1352.8 436.2,1305.5 613.1,1352.8 	"/>
	<polygon class="st1" points="316.5,1272.1 415.3,1124.4 393,1269.3 	"/>
</g>
<g class="st0">
	<path class="st1" d="M350.6,1294.3l126,218.3h-252L350.6,1294.3 M350.6,1293l-127.2,220.3h254.3L350.6,1293L350.6,1293z"/>
	<path class="st1" d="M346.2,1301.8l-67.9,164.8l-52.5,43.8L346.2,1301.8 M350.6,1293l-127.2,220.3l55.5-46.3L350.6,1293L350.6,1293
		z"/>
	<path class="st1" d="M278.8,1467.8l57.8,44.8H225.2L278.8,1467.8 M278.8,1466.9l-55.4,46.3h115.2L278.8,1466.9z"/>
	<path class="st1" d="M324.3,1456.7l13.2,54.9l-57.2-44.3L324.3,1456.7 M324.8,1455.9l-46,11l59.7,46.3L324.8,1455.9L324.8,1455.9z"
		/>
	<path class="st1" d="M324.3,1456.7l13.2,54.9l-57.2-44.3L324.3,1456.7 M324.8,1455.9l71.8-48.1l-58,105.4L324.8,1455.9
		L324.8,1455.9z"/>
	<path class="st1" d="M349.1,1298.3l-24.8,157L280,1466L349.1,1298.3 M350.6,1293l-71.7,173.9l46-11.1L350.6,1293L350.6,1293z"/>
	<polygon class="st1" points="477.7,1513.2 350.6,1293.9 408.4,1432.2 	"/>
	<polygon class="st1" points="658.3,1239.4 500.2,1513.2 816.4,1513.2 	"/>
	<path class="st1" d="M521.2,1194.3L705,1512.6H337.5L521.2,1194.3 M521.2,1193l-184.8,320.2h369.7L521.2,1193L521.2,1193z"/>
	<polyline class="st1" points="521.2,1194.3 705,1512.6 337.5,1512.6 521.2,1194.3 	"/>
	<polygon class="st1" points="521.2,1193 336.4,1513.2 396.8,1432.4 507.3,1284.6 521.2,1193 	"/>
	<polygon class="st1" points="521.2,1193 582.5,1369.6 507.3,1284.6 521.2,1193 	"/>
	<polygon class="st1" points="582.5,1369.6 507.3,1284.6 485,1429.4 	"/>
	<polygon class="st1" points="582.5,1369.6 528.1,1465.6 485,1429.4 	"/>
	<polygon class="st1" points="582.5,1369.6 528.1,1465.6 602,1422.5 	"/>
	<polygon class="st1" points="705,1513 528.1,1465.6 602,1422.5 	"/>
	<polygon class="st1" points="705,1513 705,1320.8 602,1422.5 	"/>
	<polygon class="st1" points="629.8,1288.8 704.3,1319.4 634,1389.1 	"/>
	<polygon class="st1" points="629.8,1288.8 704.3,1319.4 666,1252.6 	"/>
	<polygon class="st1" points="705,1513 705,1320.8 742.6,1386.3 	"/>
	<polygon class="st1" points="720.3,1460.1 816.4,1513 742.6,1386.3 	"/>
	<polygon class="st1" points="500.3,1513 528.1,1465.6 485,1429.4 	"/>
	<polygon class="st1" points="500.3,1513 528.1,1465.6 705,1513 	"/>
	<polygon class="st1" points="408.4,1432.2 507.3,1284.6 485,1429.4 	"/>
</g>
<g class="st0">
	<path class="st1" d="M258.6,1531l126,218.3h-252L258.6,1531 M258.6,1529.7L131.4,1750h254.3L258.6,1529.7L258.6,1529.7z"/>
	<path class="st1" d="M254.3,1538.5l-67.9,164.8l-52.6,43.8L254.3,1538.5 M258.6,1529.8L131.4,1750l55.4-46.3L258.6,1529.8
		L258.6,1529.8z"/>
	<path class="st1" d="M186.9,1704.5l57.8,44.8H133.3L186.9,1704.5 M186.9,1703.7l-55.4,46.3h115.2L186.9,1703.7z"/>
	<path class="st1" d="M232.4,1693.4l13.2,54.9l-57.2-44.3L232.4,1693.4 M232.8,1692.7l-45.9,11.1l59.7,46.3L232.8,1692.7
		L232.8,1692.7z"/>
	<path class="st1" d="M232.4,1693.4l13.2,54.9l-57.2-44.3L232.4,1693.4 M232.8,1692.7l71.8-48.1l-58,105.4L232.8,1692.7
		L232.8,1692.7z"/>
	<path class="st1" d="M257.1,1535.1l-24.8,157l-44.3,10.7L257.1,1535.1 M258.6,1529.7l-71.7,173.9l45.9-11.1L258.6,1529.7
		L258.6,1529.7z"/>
	<polygon class="st1" points="385.8,1750 258.6,1530.7 316.5,1669 	"/>
	<polygon class="st1" points="566.4,1476.2 408.3,1750 724.5,1750 	"/>
	<path class="st1" d="M429.3,1431.1l183.8,318.3H245.6L429.3,1431.1 M429.3,1429.8L244.5,1750h369.7L429.3,1429.8L429.3,1429.8z"/>
	<polyline class="st1" points="429.3,1431.1 613.1,1749.3 245.6,1749.3 429.3,1431.1 	"/>
	<polygon class="st1" points="429.3,1429.8 244.5,1750 304.9,1669.2 415.3,1521.3 429.3,1429.8 	"/>
	<polygon class="st1" points="429.3,1429.8 490.5,1606.3 415.3,1521.3 429.3,1429.8 	"/>
	<polygon class="st1" points="490.5,1606.3 415.3,1521.3 393,1666.2 	"/>
	<polygon class="st1" points="490.5,1606.3 436.2,1702.4 393,1666.2 	"/>
	<polygon class="st1" points="490.5,1606.3 436.2,1702.4 510,1659.2 	"/>
	<polygon class="st1" points="613.1,1749.8 436.2,1702.4 510,1659.2 	"/>
	<polygon class="st1" points="613.1,1749.8 613.1,1557.6 510,1659.2 	"/>
	<polygon class="st1" points="537.9,1525.5 612.4,1556.2 542.1,1625.8 	"/>
	<polygon class="st1" points="537.9,1525.5 612.4,1556.2 574.1,1489.3 	"/>
	<polygon class="st1" points="613.1,1749.8 613.1,1557.6 650.7,1623 	"/>
	<polygon class="st1" points="628.4,1696.8 724.5,1749.8 650.7,1623 	"/>
	<polygon class="st1" points="408.4,1749.8 436.2,1702.4 393,1666.2 	"/>
	<polygon class="st1" points="408.4,1749.8 436.2,1702.4 613.1,1749.8 	"/>
	<polygon class="st1" points="316.5,1669 415.3,1521.3 393,1666.2 	"/>
</g>
</svg>
