<svg id="Layer_1" data-name="Layer 1" xmlns="http://www.w3.org/2000/svg" viewBox="0 0 920 1750"><defs><style>.cls-1{opacity:0.3;}.cls-2{fill:none;stroke:#000;stroke-linejoin:round;}</style></defs><g class="cls-1"><path class="cls-2" d="M350.56,103.55l126,218.31h-252l126-218.31m0-1.29L223.37,322.51H477.68L350.56,102.26Z"/><path class="cls-2" d="M346.23,111.05,278.3,275.85l-52.54,43.82L346.23,111.05m4.33-8.79L223.37,322.51l55.45-46.27,71.74-174Z"/><path class="cls-2" d="M278.82,277l57.84,44.79H225.18L278.82,277m0-.84-55.45,46.34H338.53l-59.71-46.34Z"/><path class="cls-2" d="M324.32,266l13.18,54.87-57.19-44.34,44-10.53m.45-.78-45.95,11.06,59.71,46.27-13.76-57.33Z"/><path class="cls-2" d="M324.32,266l13.18,54.87-57.19-44.34,44-10.53m.45-.78,71.77-48.07-58,105.4-13.76-57.33Z"/><path class="cls-2" d="M349.07,107.56l-24.82,157L280,275.27l69.09-167.71m1.49-5.3L278.82,276.17l45.95-11.05,25.79-162.86Z"/><polygon class="cls-2" points="477.68 322.51 350.56 103.16 408.37 241.48 477.68 322.51"/><polygon class="cls-2" points="658.31 48.68 500.23 322.51 816.39 322.51 658.31 48.68"/><path class="cls-2" d="M521.24,3.57,705,321.86H337.5L521.24,3.57m0-1.29L336.4,322.51H706.14L521.24,2.28Z"/><polyline class="cls-2" points="521.24 3.57 705.04 321.86 337.5 321.86 521.24 3.57"/><polygon class="cls-2" points="521.24 2.28 336.4 322.51 396.8 241.68 507.25 93.86 521.24 2.28 521.24 2.28"/><polygon class="cls-2" points="521.24 2.28 582.46 178.81 507.25 93.86 521.24 2.28 521.24 2.28"/><polygon class="cls-2" points="582.46 178.81 507.25 93.86 484.97 238.7 582.46 178.81"/><polygon class="cls-2" points="582.46 178.81 528.14 274.91 484.97 238.7 582.46 178.81"/><polygon class="cls-2" points="582.46 178.81 528.14 274.91 601.96 231.73 582.46 178.81"/><polygon class="cls-2" points="705.01 322.26 528.14 274.91 601.96 231.73 705.01 322.26"/><polygon class="cls-2" points="705.01 322.26 705.01 130.07 601.96 231.73 705.01 322.26"/><polygon class="cls-2" points="629.81 98.04 704.32 128.68 633.99 198.31 629.81 98.04"/><polygon class="cls-2" points="629.81 98.04 704.32 128.68 666.02 61.83 629.81 98.04"/><polygon class="cls-2" points="705.01 322.26 705.01 130.07 742.62 195.53 705.01 322.26"/><polygon class="cls-2" points="720.33 269.34 816.43 322.26 742.62 195.53 720.33 269.34"/><polygon class="cls-2" points="500.29 322.26 528.14 274.91 484.97 238.7 500.29 322.26"/><polygon class="cls-2" points="500.29 322.26 528.14 274.91 705.01 322.26 500.29 322.26"/><polygon class="cls-2" points="408.37 241.48 507.25 93.86 484.97 238.7 408.37 241.48"/></g><g class="cls-1"><path class="cls-2" d="M258.64,340.3l126,218.32h-252l126-218.32m0-1.29L131.45,559.26H385.76L258.64,339Z"/><path class="cls-2" d="M254.31,347.8,186.39,512.6l-52.55,43.82L254.31,347.8m4.33-8.79L131.45,559.26,186.9,513l71.74-174Z"/><path class="cls-2" d="M186.9,513.77l57.84,44.78H133.26l53.64-44.78m0-.84-55.45,46.33H246.62L186.9,512.93Z"/><path class="cls-2" d="M232.4,502.71l13.18,54.87-57.19-44.33,44-10.54m.45-.77L186.9,513l59.72,46.27-13.77-57.32Z"/><path class="cls-2" d="M232.4,502.71l13.18,54.87-57.19-44.33,44-10.54m.45-.77,71.77-48.07-58,105.39-13.77-57.32Z"/><path class="cls-2" d="M257.15,344.31,232.34,501.36,188.07,512l69.08-167.71m1.49-5.3L186.9,512.93l45.95-11.06L258.64,339Z"/><polygon class="cls-2" points="385.76 559.26 258.64 339.92 316.46 478.24 385.76 559.26"/><polygon class="cls-2" points="566.4 285.44 408.32 559.26 724.48 559.26 566.4 285.44"/><path class="cls-2" d="M429.32,240.32l183.8,318.3H245.58l183.74-318.3m0-1.29L244.49,559.26H614.22L429.32,239Z"/><polyline class="cls-2" points="429.32 240.32 613.12 558.62 245.58 558.62 429.32 240.32"/><polygon class="cls-2" points="429.32 239.03 244.49 559.26 304.88 478.43 415.34 330.61 429.32 239.03 429.32 239.03"/><polygon class="cls-2" points="429.32 239.03 490.54 415.57 415.34 330.61 429.32 239.03 429.32 239.03"/><polygon class="cls-2" points="490.54 415.57 415.34 330.61 393.05 475.45 490.54 415.57"/><polygon class="cls-2" points="490.54 415.57 436.23 511.66 393.05 475.45 490.54 415.57"/><polygon class="cls-2" points="490.54 415.57 436.23 511.66 510.04 468.49 490.54 415.57"/><polygon class="cls-2" points="613.1 559.01 436.23 511.66 510.04 468.49 613.1 559.01"/><polygon class="cls-2" points="613.1 559.01 613.1 366.82 510.04 468.49 613.1 559.01"/><polygon class="cls-2" points="537.89 334.79 612.4 365.43 542.07 435.06 537.89 334.79"/><polygon class="cls-2" points="537.89 334.79 612.4 365.43 574.1 298.58 537.89 334.79"/><polygon class="cls-2" points="613.1 559.01 613.1 366.82 650.7 432.28 613.1 559.01"/><polygon class="cls-2" points="628.42 506.09 724.51 559.01 650.7 432.28 628.42 506.09"/><polygon class="cls-2" points="408.37 559.01 436.23 511.66 393.05 475.45 408.37 559.01"/><polygon class="cls-2" points="408.37 559.01 436.23 511.66 613.1 559.01 408.37 559.01"/><polygon class="cls-2" points="316.46 478.24 415.34 330.61 393.05 475.45 316.46 478.24"/></g><g class="cls-1"><path class="cls-2" d="M350.56,500.46l126,218.31h-252l126-218.31m0-1.29L223.37,719.42H477.68L350.56,499.17Z"/><path class="cls-2" d="M346.23,508,278.3,672.76l-52.54,43.82L346.23,508m4.33-8.79L223.37,719.42l55.45-46.27,71.74-174Z"/><path class="cls-2" d="M278.82,673.92l57.84,44.79H225.18l53.64-44.79m0-.84-55.45,46.34H338.53l-59.71-46.34Z"/><path class="cls-2" d="M324.32,662.87l13.18,54.87-57.19-44.33,44-10.54m.45-.77-45.95,11,59.71,46.27L324.77,662.1Z"/><path class="cls-2" d="M324.32,662.87l13.18,54.87-57.19-44.33,44-10.54m.45-.77L396.54,614l-58,105.4L324.77,662.1Z"/><path class="cls-2" d="M349.07,504.47l-24.82,157L280,672.18l69.09-167.71m1.49-5.3L278.82,673.08,324.77,662l25.79-162.86Z"/><polygon class="cls-2" points="477.68 719.42 350.56 500.07 408.37 638.39 477.68 719.42"/><polygon class="cls-2" points="658.31 445.59 500.23 719.42 816.39 719.42 658.31 445.59"/><path class="cls-2" d="M521.24,400.48,705,718.77H337.5L521.24,400.48m0-1.29L336.4,719.42H706.14L521.24,399.19Z"/><polyline class="cls-2" points="521.24 400.48 705.04 718.77 337.5 718.77 521.24 400.48"/><polygon class="cls-2" points="521.24 399.19 336.4 719.42 396.8 638.59 507.25 490.77 521.24 399.19 521.24 399.19"/><polygon class="cls-2" points="521.24 399.19 582.46 575.73 507.25 490.77 521.24 399.19 521.24 399.19"/><polygon class="cls-2" points="582.46 575.73 507.25 490.77 484.97 635.61 582.46 575.73"/><polygon class="cls-2" points="582.46 575.73 528.14 671.82 484.97 635.61 582.46 575.73"/><polygon class="cls-2" points="582.46 575.73 528.14 671.82 601.96 628.65 582.46 575.73"/><polygon class="cls-2" points="705.01 719.17 528.14 671.82 601.96 628.65 705.01 719.17"/><polygon class="cls-2" points="705.01 719.17 705.01 526.98 601.96 628.65 705.01 719.17"/><polygon class="cls-2" points="629.81 494.95 704.32 525.59 633.99 595.22 629.81 494.95"/><polygon class="cls-2" points="629.81 494.95 704.32 525.59 666.02 458.74 629.81 494.95"/><polygon class="cls-2" points="705.01 719.17 705.01 526.98 742.62 592.44 705.01 719.17"/><polygon class="cls-2" points="720.33 666.25 816.43 719.17 742.62 592.44 720.33 666.25"/><polygon class="cls-2" points="500.29 719.17 528.14 671.82 484.97 635.61 500.29 719.17"/><polygon class="cls-2" points="500.29 719.17 528.14 671.82 705.01 719.17 500.29 719.17"/><polygon class="cls-2" points="408.37 638.39 507.25 490.77 484.97 635.61 408.37 638.39"/></g><g class="cls-1"><path class="cls-2" d="M258.64,737.22l126,218.31h-252l126-218.31m0-1.3L131.45,956.18H385.76L258.64,735.92Z"/><path class="cls-2" d="M254.31,744.71l-67.92,164.8-52.55,43.82L254.31,744.71m4.33-8.79L131.45,956.18,186.9,909.9l71.74-174Z"/><path class="cls-2" d="M186.9,910.68l57.84,44.78H133.26l53.64-44.78m0-.84-55.45,46.34H246.62L186.9,909.84Z"/><path class="cls-2" d="M232.4,899.63l13.18,54.87-57.19-44.34,44-10.53m.45-.78-45.95,11,59.72,46.28-13.77-57.33Z"/><path class="cls-2" d="M232.4,899.63l13.18,54.87-57.19-44.34,44-10.53m.45-.78,71.77-48.07-58,105.4-13.77-57.33Z"/><path class="cls-2" d="M257.15,741.22l-24.81,157-44.27,10.66,69.08-167.71m1.49-5.3L186.9,909.84l45.95-11.05,25.79-162.87Z"/><polygon class="cls-2" points="385.76 956.18 258.64 736.83 316.46 875.15 385.76 956.18"/><polygon class="cls-2" points="566.4 682.35 408.32 956.18 724.48 956.18 566.4 682.35"/><path class="cls-2" d="M429.32,637.24l183.8,318.29H245.58L429.32,637.24m0-1.3L244.49,956.18H614.22L429.32,635.94Z"/><polyline class="cls-2" points="429.32 637.24 613.12 955.53 245.58 955.53 429.32 637.24"/><polygon class="cls-2" points="429.32 635.94 244.49 956.18 304.88 875.35 415.34 727.53 429.32 635.94 429.32 635.94"/><polygon class="cls-2" points="429.32 635.94 490.54 812.48 415.34 727.53 429.32 635.94 429.32 635.94"/><polygon class="cls-2" points="490.54 812.48 415.34 727.53 393.05 872.36 490.54 812.48"/><polygon class="cls-2" points="490.54 812.48 436.23 908.57 393.05 872.36 490.54 812.48"/><polygon class="cls-2" points="490.54 812.48 436.23 908.57 510.04 865.4 490.54 812.48"/><polygon class="cls-2" points="613.1 955.92 436.23 908.57 510.04 865.4 613.1 955.92"/><polygon class="cls-2" points="613.1 955.92 613.1 763.74 510.04 865.4 613.1 955.92"/><polygon class="cls-2" points="537.89 731.7 612.4 762.34 542.07 831.98 537.89 731.7"/><polygon class="cls-2" points="537.89 731.7 612.4 762.34 574.1 695.5 537.89 731.7"/><polygon class="cls-2" points="613.1 955.92 613.1 763.74 650.7 829.19 613.1 955.92"/><polygon class="cls-2" points="628.42 903 724.51 955.92 650.7 829.19 628.42 903"/><polygon class="cls-2" points="408.37 955.92 436.23 908.57 393.05 872.36 408.37 955.92"/><polygon class="cls-2" points="408.37 955.92 436.23 908.57 613.1 955.92 408.37 955.92"/><polygon class="cls-2" points="316.46 875.15 415.34 727.53 393.05 872.36 316.46 875.15"/></g><g class="cls-1"><path class="cls-2" d="M350.56,897.37l126,218.32h-252l126-218.32m0-1.29L223.37,1116.33H477.68L350.56,896.08Z"/><path class="cls-2" d="M346.23,904.87l-67.93,164.8-52.54,43.82L346.23,904.87m4.33-8.79L223.37,1116.33l55.45-46.27,71.74-174Z"/><path class="cls-2" d="M278.82,1070.84l57.84,44.78H225.18l53.64-44.78m0-.85-55.45,46.34H338.53L278.82,1070Z"/><path class="cls-2" d="M324.32,1059.78l13.18,54.87-57.19-44.33,44-10.54m.45-.77-45.95,11,59.71,46.27L324.77,1059Z"/><path class="cls-2" d="M324.32,1059.78l13.18,54.87-57.19-44.33,44-10.54m.45-.77,71.77-48.07-58,105.39L324.77,1059Z"/><path class="cls-2" d="M349.07,901.38l-24.82,157.05L280,1069.09l69.09-167.71m1.49-5.3L278.82,1070l45.95-11,25.79-162.86Z"/><polygon class="cls-2" points="477.68 1116.33 350.56 896.99 408.37 1035.31 477.68 1116.33"/><polygon class="cls-2" points="658.31 842.5 500.23 1116.33 816.39 1116.33 658.31 842.5"/><path class="cls-2" d="M521.24,797.39,705,1115.69H337.5l183.74-318.3m0-1.29L336.4,1116.33H706.14L521.24,796.1Z"/><polyline class="cls-2" points="521.24 797.39 705.04 1115.69 337.5 1115.69 521.24 797.39"/><polygon class="cls-2" points="521.24 796.1 336.4 1116.33 396.8 1035.5 507.25 887.68 521.24 796.1 521.24 796.1"/><polygon class="cls-2" points="521.24 796.1 582.46 972.64 507.25 887.68 521.24 796.1 521.24 796.1"/><polygon class="cls-2" points="582.46 972.64 507.25 887.68 484.97 1032.52 582.46 972.64"/><polygon class="cls-2" points="582.46 972.64 528.14 1068.73 484.97 1032.52 582.46 972.64"/><polygon class="cls-2" points="582.46 972.64 528.14 1068.73 601.96 1025.56 582.46 972.64"/><polygon class="cls-2" points="705.01 1116.08 528.14 1068.73 601.96 1025.56 705.01 1116.08"/><polygon class="cls-2" points="705.01 1116.08 705.01 923.89 601.96 1025.56 705.01 1116.08"/><polygon class="cls-2" points="629.81 891.86 704.32 922.5 633.99 992.13 629.81 891.86"/><polygon class="cls-2" points="629.81 891.86 704.32 922.5 666.02 855.65 629.81 891.86"/><polygon class="cls-2" points="705.01 1116.08 705.01 923.89 742.62 989.35 705.01 1116.08"/><polygon class="cls-2" points="720.33 1063.16 816.43 1116.08 742.62 989.35 720.33 1063.16"/><polygon class="cls-2" points="500.29 1116.08 528.14 1068.73 484.97 1032.52 500.29 1116.08"/><polygon class="cls-2" points="500.29 1116.08 528.14 1068.73 705.01 1116.08 500.29 1116.08"/><polygon class="cls-2" points="408.37 1035.31 507.25 887.68 484.97 1032.52 408.37 1035.31"/></g><g class="cls-1"><path class="cls-2" d="M258.64,1134.13l126,218.31h-252l126-218.31m0-1.29L131.45,1353.09H385.76L258.64,1132.84Z"/><path class="cls-2" d="M254.31,1141.63l-67.92,164.8-52.55,43.81,120.47-208.61m4.33-8.79L131.45,1353.09l55.45-46.28,71.74-174Z"/><path class="cls-2" d="M186.9,1307.59l57.84,44.79H133.26l53.64-44.79m0-.84-55.45,46.34H246.62l-59.72-46.34Z"/><path class="cls-2" d="M232.4,1296.54l13.18,54.87-57.19-44.34,44-10.53m.45-.78-45.95,11,59.72,46.28-13.77-57.33Z"/><path class="cls-2" d="M232.4,1296.54l13.18,54.87-57.19-44.34,44-10.53m.45-.78,71.77-48.07-58,105.4-13.77-57.33Z"/><path class="cls-2" d="M257.15,1138.14l-24.81,157-44.27,10.66,69.08-167.7m1.49-5.3L186.9,1306.75l45.95-11,25.79-162.86Z"/><polygon class="cls-2" points="385.76 1353.09 258.64 1133.74 316.46 1272.06 385.76 1353.09"/><polygon class="cls-2" points="566.4 1079.26 408.32 1353.09 724.48 1353.09 566.4 1079.26"/><path class="cls-2" d="M429.32,1034.15l183.8,318.29H245.58l183.74-318.29m0-1.29L244.49,1353.09H614.22l-184.9-320.23Z"/><polyline class="cls-2" points="429.32 1034.15 613.12 1352.44 245.58 1352.44 429.32 1034.15"/><polygon class="cls-2" points="429.32 1032.86 244.49 1353.09 304.88 1272.26 415.34 1124.44 429.32 1032.86 429.32 1032.86"/><polygon class="cls-2" points="429.32 1032.86 490.54 1209.39 415.34 1124.44 429.32 1032.86 429.32 1032.86"/><polygon class="cls-2" points="490.54 1209.39 415.34 1124.44 393.05 1269.28 490.54 1209.39"/><polygon class="cls-2" points="490.54 1209.39 436.23 1305.49 393.05 1269.28 490.54 1209.39"/><polygon class="cls-2" points="490.54 1209.39 436.23 1305.49 510.04 1262.31 490.54 1209.39"/><polygon class="cls-2" points="613.1 1352.84 436.23 1305.49 510.04 1262.31 613.1 1352.84"/><polygon class="cls-2" points="613.1 1352.84 613.1 1160.65 510.04 1262.31 613.1 1352.84"/><polygon class="cls-2" points="537.89 1128.62 612.4 1159.26 542.07 1228.89 537.89 1128.62"/><polygon class="cls-2" points="537.89 1128.62 612.4 1159.26 574.1 1092.41 537.89 1128.62"/><polygon class="cls-2" points="613.1 1352.84 613.1 1160.65 650.7 1226.1 613.1 1352.84"/><polygon class="cls-2" points="628.42 1299.91 724.51 1352.84 650.7 1226.1 628.42 1299.91"/><polygon class="cls-2" points="408.37 1352.84 436.23 1305.49 393.05 1269.28 408.37 1352.84"/><polygon class="cls-2" points="408.37 1352.84 436.23 1305.49 613.1 1352.84 408.37 1352.84"/><polygon class="cls-2" points="316.46 1272.06 415.34 1124.44 393.05 1269.28 316.46 1272.06"/></g><g class="cls-1"><path class="cls-2" d="M350.56,1294.29l126,218.31h-252l126-218.31m0-1.3L223.37,1513.25H477.68L350.56,1293Z"/><path class="cls-2" d="M346.23,1301.78l-67.93,164.8-52.54,43.82,120.47-208.62m4.33-8.79L223.37,1513.25,278.82,1467l71.74-174Z"/><path class="cls-2" d="M278.82,1467.75l57.84,44.78H225.18l53.64-44.78m0-.84-55.45,46.34H338.53l-59.71-46.34Z"/><path class="cls-2" d="M324.32,1456.7l13.18,54.87-57.19-44.34,44-10.53m.45-.78-45.95,11,59.71,46.28-13.76-57.33Z"/><path class="cls-2" d="M324.32,1456.7l13.18,54.87-57.19-44.34,44-10.53m.45-.78,71.77-48.07-58,105.4-13.76-57.33Z"/><path class="cls-2" d="M349.07,1298.29l-24.82,157L280,1466l69.09-167.71m1.49-5.3-71.74,173.92,45.95-11.05L350.56,1293Z"/><polygon class="cls-2" points="477.68 1513.24 350.56 1293.9 408.37 1432.22 477.68 1513.24"/><polygon class="cls-2" points="658.31 1239.42 500.23 1513.24 816.39 1513.24 658.31 1239.42"/><path class="cls-2" d="M521.24,1194.31,705,1512.6H337.5l183.74-318.29m0-1.3L336.4,1513.25H706.14L521.24,1193Z"/><polyline class="cls-2" points="521.24 1194.31 705.04 1512.6 337.5 1512.6 521.24 1194.31"/><polygon class="cls-2" points="521.24 1193.01 336.4 1513.24 396.8 1432.42 507.25 1284.6 521.24 1193.01 521.24 1193.01"/><polygon class="cls-2" points="521.24 1193.01 582.46 1369.55 507.25 1284.6 521.24 1193.01 521.24 1193.01"/><polygon class="cls-2" points="582.46 1369.55 507.25 1284.6 484.97 1429.43 582.46 1369.55"/><polygon class="cls-2" points="582.46 1369.55 528.14 1465.64 484.97 1429.43 582.46 1369.55"/><polygon class="cls-2" points="582.46 1369.55 528.14 1465.64 601.96 1422.47 582.46 1369.55"/><polygon class="cls-2" points="705.01 1512.99 528.14 1465.64 601.96 1422.47 705.01 1512.99"/><polygon class="cls-2" points="705.01 1512.99 705.01 1320.81 601.96 1422.47 705.01 1512.99"/><polygon class="cls-2" points="629.81 1288.77 704.32 1319.41 633.99 1389.05 629.81 1288.77"/><polygon class="cls-2" points="629.81 1288.77 704.32 1319.41 666.02 1252.57 629.81 1288.77"/><polygon class="cls-2" points="705.01 1512.99 705.01 1320.81 742.62 1386.26 705.01 1512.99"/><polygon class="cls-2" points="720.33 1460.07 816.43 1512.99 742.62 1386.26 720.33 1460.07"/><polygon class="cls-2" points="500.29 1512.99 528.14 1465.64 484.97 1429.43 500.29 1512.99"/><polygon class="cls-2" points="500.29 1512.99 528.14 1465.64 705.01 1512.99 500.29 1512.99"/><polygon class="cls-2" points="408.37 1432.22 507.25 1284.6 484.97 1429.43 408.37 1432.22"/></g><g class="cls-1"><path class="cls-2" d="M258.64,1531l126,218.31h-252l126-218.31m0-1.29L131.45,1750H385.76L258.64,1529.75Z"/><path class="cls-2" d="M254.31,1538.54l-67.92,164.8-52.55,43.82,120.47-208.62m4.33-8.79L131.45,1750l55.45-46.27,71.74-174Z"/><path class="cls-2" d="M186.9,1704.5l57.84,44.79H133.26l53.64-44.79m0-.84L131.45,1750H246.62l-59.72-46.34Z"/><path class="cls-2" d="M232.4,1693.45l13.18,54.87L188.39,1704l44-10.53m.45-.78-45.95,11.06L246.62,1750l-13.77-57.33Z"/><path class="cls-2" d="M232.4,1693.45l13.18,54.87L188.39,1704l44-10.53m.45-.78,71.77-48.07-58,105.4-13.77-57.33Z"/><path class="cls-2" d="M257.15,1535.05l-24.81,157-44.27,10.67,69.08-167.71m1.49-5.3L186.9,1703.66l45.95-11.05,25.79-162.86Z"/><polygon class="cls-2" points="385.76 1750 258.64 1530.65 316.46 1668.97 385.76 1750"/><polygon class="cls-2" points="566.4 1476.17 408.32 1750 724.48 1750 566.4 1476.17"/><path class="cls-2" d="M429.32,1431.06l183.8,318.29H245.58l183.74-318.29m0-1.29L244.49,1750H614.22l-184.9-320.23Z"/><polyline class="cls-2" points="429.32 1431.06 613.12 1749.35 245.58 1749.35 429.32 1431.06"/><polygon class="cls-2" points="429.32 1429.77 244.49 1750 304.88 1669.17 415.34 1521.35 429.32 1429.77 429.32 1429.77"/><polygon class="cls-2" points="429.32 1429.77 490.54 1606.3 415.34 1521.35 429.32 1429.77 429.32 1429.77"/><polygon class="cls-2" points="490.54 1606.3 415.34 1521.35 393.05 1666.19 490.54 1606.3"/><polygon class="cls-2" points="490.54 1606.3 436.23 1702.4 393.05 1666.19 490.54 1606.3"/><polygon class="cls-2" points="490.54 1606.3 436.23 1702.4 510.04 1659.22 490.54 1606.3"/><polygon class="cls-2" points="613.1 1749.75 436.23 1702.4 510.04 1659.22 613.1 1749.75"/><polygon class="cls-2" points="613.1 1749.75 613.1 1557.56 510.04 1659.22 613.1 1749.75"/><polygon class="cls-2" points="537.89 1525.53 612.4 1556.17 542.07 1625.8 537.89 1525.53"/><polygon class="cls-2" points="537.89 1525.53 612.4 1556.17 574.1 1489.32 537.89 1525.53"/><polygon class="cls-2" points="613.1 1749.75 613.1 1557.56 650.7 1623.02 613.1 1749.75"/><polygon class="cls-2" points="628.42 1696.83 724.51 1749.75 650.7 1623.02 628.42 1696.83"/><polygon class="cls-2" points="408.37 1749.75 436.23 1702.4 393.05 1666.19 408.37 1749.75"/><polygon class="cls-2" points="408.37 1749.75 436.23 1702.4 613.1 1749.75 408.37 1749.75"/><polygon class="cls-2" points="316.46 1668.97 415.34 1521.35 393.05 1666.19 316.46 1668.97"/></g></svg>